<svg width="20" height="20" viewBox="0 0 20 20" fill="none" xmlns="http://www.w3.org/2000/svg">
<path d="M14.1666 17.5V15.8333C13.9456 15.8333 13.7336 15.7455 13.5773 15.5893C13.421 15.433 13.3333 15.221 13.3333 15V14.1667C13.3333 13.7246 13.5088 13.3007 13.8214 12.9882C14.134 12.6756 14.5579 12.5 14.9999 12.5H16.6666C17.1086 12.5 17.5325 12.6756 17.8451 12.9882C18.1577 13.3007 18.3333 13.7246 18.3333 14.1667V15C18.3333 15.221 18.2455 15.433 18.0892 15.5893C17.9329 15.7455 17.7209 15.8333 17.4999 15.8333" stroke="#1D170C" stroke-width="2" stroke-linecap="round" stroke-linejoin="round"/>
<path d="M15.8334 12.5V5.41667C15.8334 4.64312 15.5261 3.90125 14.9791 3.35427C14.4322 2.80729 13.6903 2.5 12.9167 2.5C12.1432 2.5 11.4013 2.80729 10.8544 3.35427C10.3074 3.90125 10.0001 4.64312 10.0001 5.41667V14.5833C10.0001 15.3569 9.69279 16.0987 9.14581 16.6457C8.59883 17.1927 7.85696 17.5 7.08341 17.5C6.30987 17.5 5.568 17.1927 5.02102 16.6457C4.47404 16.0987 4.16675 15.3569 4.16675 14.5833V7.5" stroke="#1D170C" stroke-width="2" stroke-linecap="round" stroke-linejoin="round"/>
<path d="M17.5001 17.5V15.8333H14.1667" stroke="#1D170C" stroke-width="2" stroke-linecap="round" stroke-linejoin="round"/>
<path d="M2.5 4.16667H5.83333V2.5" stroke="#1D170C" stroke-width="2" stroke-linecap="round" stroke-linejoin="round"/>
<path d="M5.83341 4.16667C6.05443 4.16667 6.26639 4.25446 6.42267 4.41074C6.57895 4.56702 6.66675 4.77899 6.66675 5V5.83333C6.66675 6.27536 6.49115 6.69928 6.17859 7.01184C5.86603 7.3244 5.44211 7.5 5.00008 7.5H3.33341C2.89139 7.5 2.46746 7.3244 2.1549 7.01184C1.84234 6.69928 1.66675 6.27536 1.66675 5.83333V5C1.66675 4.77899 1.75455 4.56702 1.91083 4.41074C2.06711 4.25446 2.27907 4.16667 2.50008 4.16667V2.5" stroke="#1D170C" stroke-width="2" stroke-linecap="round" stroke-linejoin="round"/>
</svg>
