<svg width="20" height="20" viewBox="0 0 20 20" fill="none" xmlns="http://www.w3.org/2000/svg">
<path d="M3.33325 1.66666V18.3333L4.99992 17.5L6.66659 18.3333L8.33325 17.5L9.99992 18.3333L11.6666 17.5L13.3333 18.3333L14.9999 17.5L16.6666 18.3333V1.66666L14.9999 2.5L13.3333 1.66666L11.6666 2.5L9.99992 1.66666L8.33325 2.5L6.66659 1.66666L4.99992 2.5L3.33325 1.66666Z" stroke="#1D170C" stroke-width="2" stroke-linecap="round" stroke-linejoin="round"/>
<path d="M13.3334 6.66666H8.33341C7.89139 6.66666 7.46746 6.84226 7.1549 7.15482C6.84234 7.46738 6.66675 7.8913 6.66675 8.33333C6.66675 8.77536 6.84234 9.19928 7.1549 9.51184C7.46746 9.8244 7.89139 10 8.33341 10H11.6667C12.1088 10 12.5327 10.1756 12.8453 10.4882C13.1578 10.8007 13.3334 11.2246 13.3334 11.6667C13.3334 12.1087 13.1578 12.5326 12.8453 12.8452C12.5327 13.1577 12.1088 13.3333 11.6667 13.3333H6.66675" stroke="#1D170C" stroke-width="2" stroke-linecap="round" stroke-linejoin="round"/>
<path d="M10 14.5833V5.41666" stroke="#1D170C" stroke-width="2" stroke-linecap="round" stroke-linejoin="round"/>
</svg>
